<svg width="16" height="20" viewBox="0 0 16 20" fill="none" xmlns="http://www.w3.org/2000/svg">
<path d="M14.15 7.14474L13.85 16.225C13.8244 17.0027 13.4968 17.7398 12.9367 18.2799C12.3766 18.8199 11.6281 19.1205 10.85 19.1177H5.15C4.37241 19.1205 3.62431 18.8204 3.06428 18.2809C2.50425 17.7415 2.17631 17.0051 2.15 16.228L1.85 7.14474C1.84343 6.94583 1.91616 6.75246 2.05217 6.60716C2.18818 6.46187 2.37634 6.37656 2.57525 6.36999C2.77416 6.36343 2.96753 6.43615 3.11283 6.57216C3.25812 6.70817 3.34343 6.89633 3.35 7.09524L3.65 16.1777C3.66494 16.5655 3.82954 16.9323 4.10924 17.2013C4.38895 17.4702 4.76198 17.6203 5.15 17.62H10.85C11.2385 17.6203 11.612 17.4698 11.8918 17.2002C12.1715 16.9306 12.3358 16.563 12.35 16.1747L12.65 7.09524C12.6566 6.89633 12.7419 6.70817 12.8872 6.57216C13.0325 6.43615 13.2258 6.36343 13.4247 6.36999C13.6237 6.37656 13.8118 6.46187 13.9478 6.60716C14.0838 6.75246 14.1566 6.94583 14.15 7.14474ZM15.1422 4.12299C15.1422 4.32191 15.0632 4.51267 14.9226 4.65332C14.7819 4.79398 14.5912 4.87299 14.3922 4.87299H1.6085C1.40959 4.87299 1.21882 4.79398 1.07817 4.65332C0.937515 4.51267 0.858498 4.32191 0.858498 4.12299C0.858498 3.92408 0.937515 3.73332 1.07817 3.59266C1.21882 3.45201 1.40959 3.37299 1.6085 3.37299H3.9335C4.17113 3.37363 4.40051 3.28584 4.57698 3.12669C4.75346 2.96754 4.86441 2.74843 4.88825 2.51199C4.94359 1.95736 5.20344 1.44319 5.61717 1.06967C6.03089 0.696156 6.56886 0.490043 7.12625 0.491493H8.87375C9.43114 0.490043 9.9691 0.696156 10.3828 1.06967C10.7966 1.44319 11.0564 1.95736 11.1117 2.51199C11.1356 2.74843 11.2465 2.96754 11.423 3.12669C11.5995 3.28584 11.8289 3.37363 12.0665 3.37299H14.3915C14.5904 3.37299 14.7812 3.45201 14.9218 3.59266C15.0625 3.73332 15.1415 3.92408 15.1415 4.12299H15.1422ZM6.19025 3.37299H9.81125C9.71269 3.1478 9.64823 2.90918 9.62 2.66499C9.60142 2.48012 9.51488 2.30873 9.37715 2.18403C9.23942 2.05932 9.0603 1.99018 8.8745 1.98999H7.127C6.9412 1.99018 6.76208 2.05932 6.62435 2.18403C6.48662 2.30873 6.40008 2.48012 6.3815 2.66499C6.35302 2.90922 6.28906 3.14784 6.19025 3.37299ZM6.9455 14.7362V8.34999C6.9455 8.15108 6.86648 7.96032 6.72583 7.81966C6.58518 7.67901 6.39441 7.59999 6.1955 7.59999C5.99658 7.59999 5.80582 7.67901 5.66517 7.81966C5.52452 7.96032 5.4455 8.15108 5.4455 8.34999V14.7392C5.4455 14.9382 5.52452 15.1289 5.66517 15.2696C5.80582 15.4102 5.99658 15.4892 6.1955 15.4892C6.39441 15.4892 6.58518 15.4102 6.72583 15.2696C6.86648 15.1289 6.9455 14.9382 6.9455 14.7392V14.7362ZM10.556 14.7362V8.34999C10.556 8.15108 10.477 7.96032 10.3363 7.81966C10.1957 7.67901 10.0049 7.59999 9.806 7.59999C9.60709 7.59999 9.41632 7.67901 9.27567 7.81966C9.13501 7.96032 9.056 8.15108 9.056 8.34999V14.7392C9.056 14.9382 9.13501 15.1289 9.27567 15.2696C9.41632 15.4102 9.60709 15.4892 9.806 15.4892C10.0049 15.4892 10.1957 15.4102 10.3363 15.2696C10.477 15.1289 10.556 14.9382 10.556 14.7392V14.7362Z" fill="#676769"/>
</svg>
