<svg width="24" height="24" viewBox="0 0 24 24" fill="none" xmlns="http://www.w3.org/2000/svg">
<g clip-path="url(#clip0_116_3850)">
<path d="M8.67206 13.5951H15.3279C15.581 13.5951 15.8256 13.5042 16.0171 13.3388C16.2086 13.1735 16.3343 12.9448 16.3713 12.6945C16.4082 12.4442 16.354 12.189 16.2183 11.9753C16.0827 11.7617 15.8749 11.604 15.6326 11.5309V11.0407C15.6316 10.3025 15.3728 9.58773 14.901 9.01994C14.4291 8.45215 13.7738 8.06693 13.0483 7.9308C13.1375 7.75214 13.1797 7.55363 13.1706 7.35412C13.1616 7.1546 13.1018 6.9607 12.9967 6.79082C12.8917 6.62095 12.745 6.48073 12.5706 6.38348C12.3961 6.28624 12.1997 6.2352 12 6.2352C11.8003 6.2352 11.6039 6.28624 11.4294 6.38348C11.255 6.48073 11.1083 6.62095 11.0033 6.79082C10.8982 6.9607 10.8384 7.1546 10.8294 7.35412C10.8203 7.55363 10.8625 7.75214 10.9517 7.9308C10.2262 8.06693 9.57086 8.45215 9.09902 9.01994C8.62718 9.58773 8.3684 10.3025 8.36737 11.0407V11.5309C8.12514 11.604 7.91725 11.7617 7.78165 11.9753C7.64605 12.189 7.59177 12.4442 7.62872 12.6945C7.66566 12.9448 7.79137 13.1735 7.98291 13.3388C8.17444 13.5042 8.41904 13.5951 8.67206 13.5951ZM12 6.93924C12.0927 6.93924 12.1833 6.96673 12.2604 7.01823C12.3375 7.06973 12.3976 7.14293 12.433 7.22858C12.4685 7.31422 12.4778 7.40846 12.4597 7.49938C12.4416 7.5903 12.397 7.67381 12.3314 7.73936C12.2659 7.80491 12.1824 7.84955 12.0914 7.86764C12.0005 7.88572 11.9063 7.87644 11.8206 7.84097C11.735 7.80549 11.6618 7.74542 11.6103 7.66834C11.5588 7.59126 11.5313 7.50064 11.5313 7.40794C11.5314 7.28368 11.5809 7.16454 11.6687 7.07667C11.7566 6.9888 11.8757 6.93937 12 6.93924ZM9.0705 11.0407C9.07124 10.3883 9.33075 9.76274 9.79211 9.30138C10.2535 8.84003 10.879 8.58051 11.5314 8.57977H12.4686C13.121 8.58051 13.7465 8.84003 14.2079 9.30138C14.6692 9.76274 14.9288 10.3883 14.9295 11.0407V11.4858H9.0705V11.0407ZM8.67206 12.189H15.3279C15.3741 12.189 15.4198 12.1981 15.4625 12.2157C15.5051 12.2334 15.5439 12.2593 15.5765 12.2919C15.6091 12.3246 15.635 12.3633 15.6527 12.406C15.6704 12.4486 15.6795 12.4943 15.6795 12.5405C15.6795 12.5866 15.6704 12.6323 15.6527 12.675C15.635 12.7176 15.6091 12.7564 15.5765 12.789C15.5439 12.8217 15.5051 12.8476 15.4625 12.8652C15.4198 12.8829 15.3741 12.892 15.3279 12.892H8.67206C8.6259 12.892 8.58019 12.8829 8.53754 12.8652C8.49489 12.8476 8.45614 12.8217 8.4235 12.789C8.39086 12.7564 8.36496 12.7176 8.3473 12.675C8.32963 12.6323 8.32054 12.5866 8.32054 12.5405C8.32054 12.4943 8.32963 12.4486 8.3473 12.406C8.36496 12.3633 8.39086 12.3246 8.4235 12.2919C8.45614 12.2593 8.49489 12.2334 8.53754 12.2157C8.58019 12.1981 8.6259 12.189 8.67206 12.189ZM17.1797 21.1875H10.8984C10.8052 21.1875 10.7158 21.2245 10.6498 21.2905C10.5839 21.3564 10.5469 21.4458 10.5469 21.5391C10.5469 21.6323 10.5839 21.7217 10.6498 21.7877C10.7158 21.8536 10.8052 21.8906 10.8984 21.8906H17.1797C17.2729 21.8906 17.3623 21.8536 17.4283 21.7877C17.4942 21.7217 17.5312 21.6323 17.5312 21.5391C17.5312 21.4458 17.4942 21.3564 17.4283 21.2905C17.3623 21.2245 17.2729 21.1875 17.1797 21.1875ZM17.1797 15.0434H10.8984C10.8052 15.0434 10.7158 15.0805 10.6498 15.1464C10.5839 15.2123 10.5469 15.3018 10.5469 15.395C10.5469 15.4882 10.5839 15.5777 10.6498 15.6436C10.7158 15.7095 10.8052 15.7466 10.8984 15.7466H17.1797C17.2729 15.7466 17.3623 15.7095 17.4283 15.6436C17.4942 15.5777 17.5312 15.4882 17.5312 15.395C17.5312 15.3018 17.4942 15.2123 17.4283 15.1464C17.3623 15.0805 17.2729 15.0434 17.1797 15.0434ZM8.78906 19.2187H6.82031C6.77414 19.2187 6.72843 19.2278 6.68577 19.2455C6.64312 19.2632 6.60436 19.2891 6.57171 19.3217C6.53907 19.3544 6.51317 19.3931 6.4955 19.4358C6.47784 19.4784 6.46875 19.5241 6.46875 19.5703V21.5391C6.46875 21.5852 6.47784 21.6309 6.4955 21.6736C6.51317 21.7163 6.53907 21.755 6.57171 21.7877C6.60436 21.8203 6.64312 21.8462 6.68577 21.8639C6.72843 21.8815 6.77414 21.8906 6.82031 21.8906H8.78906C8.83523 21.8906 8.88095 21.8815 8.9236 21.8639C8.96626 21.8462 9.00502 21.8203 9.03766 21.7877C9.07031 21.755 9.0962 21.7163 9.11387 21.6736C9.13154 21.6309 9.14063 21.5852 9.14062 21.5391V19.5703C9.14063 19.5241 9.13154 19.4784 9.11387 19.4358C9.0962 19.3931 9.07031 19.3544 9.03766 19.3217C9.00502 19.2891 8.96626 19.2632 8.9236 19.2455C8.88095 19.2278 8.83523 19.2187 8.78906 19.2187ZM8.4375 21.1875H7.17188V19.9219H8.4375V21.1875ZM18.8203 4.21875H16.125V1.03198C16.125 0.899048 16.0927 0.76811 16.0308 0.650436C15.969 0.532763 15.8795 0.431879 15.77 0.35647C15.6606 0.28106 15.5344 0.233384 15.4024 0.217545C15.2704 0.201706 15.1366 0.218178 15.0124 0.265544L4.58565 4.24182C4.58416 4.24239 4.5828 4.24313 4.58132 4.24372C4.57444 4.24645 4.56774 4.24949 4.56108 4.25264C4.5569 4.2546 4.55271 4.25651 4.54865 4.25862C4.54305 4.26154 4.53763 4.26473 4.53222 4.26794C4.52737 4.27079 4.52252 4.2736 4.51786 4.27665C4.51365 4.27943 4.50962 4.28243 4.50554 4.28537C4.50016 4.28925 4.49478 4.2931 4.48967 4.29725C4.48642 4.29988 4.48336 4.30272 4.48021 4.30546C4.47477 4.31021 4.46934 4.31495 4.46423 4.31999C4.46131 4.32286 4.4586 4.32594 4.45578 4.32893C4.45093 4.33406 4.44606 4.33918 4.44154 4.34459C4.43842 4.34832 4.43556 4.35226 4.43258 4.35612C4.42882 4.36102 4.42498 4.36587 4.42149 4.37096C4.41806 4.37592 4.41497 4.38112 4.41181 4.38625C4.40918 4.39052 4.40644 4.39471 4.40401 4.39908C4.40064 4.40511 4.39766 4.41135 4.39465 4.41759C4.39279 4.42142 4.39082 4.42519 4.38911 4.42908C4.38628 4.43552 4.38384 4.44216 4.38138 4.4488C4.37989 4.45285 4.37828 4.45684 4.37694 4.46094C4.37493 4.46709 4.37328 4.47338 4.3716 4.47968C4.37027 4.48465 4.36887 4.48959 4.36775 4.49464C4.36658 4.5 4.36569 4.50546 4.36477 4.51091C4.36369 4.51719 4.36263 4.52345 4.36189 4.52979C4.36137 4.53429 4.36108 4.53885 4.36073 4.5434C4.36016 4.5508 4.35971 4.55819 4.35961 4.56564C4.35959 4.56721 4.35938 4.56873 4.35938 4.57031V23.6484C4.35937 23.6946 4.36846 23.7403 4.38613 23.783C4.4038 23.8256 4.42969 23.8644 4.46234 23.897C4.49498 23.9297 4.53374 23.9556 4.5764 23.9732C4.61905 23.9909 4.66477 24 4.71094 24H18.8203C19.0378 23.9998 19.2463 23.9132 19.4001 23.7595C19.5539 23.6057 19.6404 23.3972 19.6406 23.1797V5.03906C19.6404 4.82158 19.5539 4.61307 19.4001 4.45929C19.2463 4.3055 19.0378 4.219 18.8203 4.21875ZM15.2629 0.922529C15.2807 0.915757 15.2998 0.913399 15.3187 0.915657C15.3375 0.917915 15.3555 0.924722 15.3712 0.935492C15.3868 0.946261 15.3996 0.960671 15.4084 0.977479C15.4173 0.994288 15.4219 1.01299 15.4219 1.03198V4.21875H6.61949L15.2629 0.922529ZM18.9375 23.1797C18.9375 23.2108 18.9251 23.2405 18.9031 23.2625C18.8812 23.2845 18.8514 23.2968 18.8203 23.2969H5.0625V4.92187H18.8203C18.8514 4.9219 18.8812 4.93426 18.9031 4.95623C18.9251 4.9782 18.9375 5.00799 18.9375 5.03906V23.1797ZM17.1797 17.0122H10.8984C10.8052 17.0122 10.7158 17.0492 10.6498 17.1152C10.5839 17.1811 10.5469 17.2705 10.5469 17.3638C10.5469 17.457 10.5839 17.5464 10.6498 17.6123C10.7158 17.6783 10.8052 17.7153 10.8984 17.7153H17.1797C17.2729 17.7153 17.3623 17.6783 17.4283 17.6123C17.4942 17.5464 17.5312 17.457 17.5312 17.3638C17.5312 17.2705 17.4942 17.1811 17.4283 17.1152C17.3623 17.0492 17.2729 17.0122 17.1797 17.0122ZM8.78906 15.0434H6.82031C6.77414 15.0434 6.72843 15.0525 6.68577 15.0702C6.64312 15.0879 6.60436 15.1138 6.57171 15.1464C6.53907 15.179 6.51317 15.2178 6.4955 15.2605C6.47784 15.3031 6.46875 15.3488 6.46875 15.395V17.3638C6.46875 17.4099 6.47784 17.4556 6.4955 17.4983C6.51317 17.5409 6.53907 17.5797 6.57171 17.6124C6.60436 17.645 6.64312 17.6709 6.68577 17.6886C6.72843 17.7062 6.77414 17.7153 6.82031 17.7153H8.78906C8.83523 17.7153 8.88095 17.7062 8.9236 17.6886C8.96626 17.6709 9.00502 17.645 9.03766 17.6124C9.07031 17.5797 9.0962 17.5409 9.11387 17.4983C9.13154 17.4556 9.14063 17.4099 9.14062 17.3638V15.395C9.14063 15.3488 9.13154 15.3031 9.11387 15.2605C9.0962 15.2178 9.07031 15.179 9.03766 15.1464C9.00502 15.1138 8.96626 15.0879 8.9236 15.0702C8.88095 15.0525 8.83523 15.0434 8.78906 15.0434ZM8.4375 17.0122H7.17188V15.7466H8.4375V17.0122ZM17.1797 19.2187H10.8984C10.8052 19.2187 10.7158 19.2558 10.6498 19.3217C10.5839 19.3876 10.5469 19.4771 10.5469 19.5703C10.5469 19.6635 10.5839 19.753 10.6498 19.8189C10.7158 19.8848 10.8052 19.9219 10.8984 19.9219H17.1797C17.2729 19.9219 17.3623 19.8848 17.4283 19.8189C17.4942 19.753 17.5312 19.6635 17.5312 19.5703C17.5312 19.4771 17.4942 19.3876 17.4283 19.3217C17.3623 19.2558 17.2729 19.2187 17.1797 19.2187Z" fill="#FF611D"/>
</g>
<defs>
<clipPath id="clip0_116_3850">
<rect width="24" height="24" fill="white"/>
</clipPath>
</defs>
</svg>
