<svg width="24" height="24" viewBox="0 0 24 24" fill="none" xmlns="http://www.w3.org/2000/svg">
<g clip-path="url(#clip0_116_3845)">
<path d="M22.1475 10.3837C21.9525 4.635 17.6062 0 12.3487 0H11.6512C6.42749 0 2.08124 4.60125 1.85249 10.305C0.97499 10.5562 0.33374 11.3588 0.33374 12.3113V14.7525C0.33374 15.9075 1.27124 16.8488 2.42999 16.8488C3.06374 16.8488 3.62999 16.5638 4.01624 16.1138C4.39499 17.5725 5.00249 18.96 5.77874 20.1413C7.37624 22.5788 9.50624 23.9475 11.7712 23.9963L11.8987 24C14.1937 24 16.3612 22.6763 18.0075 20.2762C18.1425 20.0775 18.2737 19.8675 18.4012 19.6575L19.1325 19.65C19.8423 19.6523 20.5308 19.4078 21.0801 18.9583C21.6294 18.5089 22.0054 17.8824 22.1437 17.1863H22.1625L22.1887 16.9313C22.1925 16.8975 22.1925 16.8638 22.1925 16.83C23.0437 16.5638 23.6662 15.7725 23.6662 14.8387V12.3975C23.6662 11.4375 23.025 10.635 22.1475 10.3837ZM3.65999 10.6237C3.49874 10.5037 3.31874 10.41 3.12749 10.3387C3.34124 5.32125 7.11374 1.27875 11.6512 1.27875H12.3487C16.9162 1.27875 20.6925 5.35875 20.8687 10.4175C20.6887 10.4812 20.52 10.5712 20.3662 10.68C19.785 5.98875 16.6125 2.90625 12.2287 2.8125H12.06C9.78374 2.8125 7.68749 3.68625 6.15374 5.26875C4.82249 6.64875 3.96749 8.4975 3.65999 10.6237ZM17.6437 18.39L14.6287 18.4313C14.5125 18.2093 14.338 18.0232 14.1239 17.893C13.9098 17.7628 13.6643 17.6935 13.4137 17.6925H12.2587C11.4937 17.6925 10.875 18.315 10.875 19.0725C10.875 19.8375 11.4975 20.4562 12.2587 20.4562H13.4137C13.9425 20.4562 14.4037 20.1488 14.6325 19.7062L16.8412 19.6763C15.435 21.615 13.6537 22.7175 11.895 22.7175H11.7937C9.95999 22.6763 8.20124 21.5138 6.83999 19.4363C5.54624 17.4638 4.80374 14.9175 4.80374 12.45V12.315L4.80749 12.18C4.85999 9.71625 5.64374 7.635 7.07249 6.15375C8.36624 4.81875 10.1287 4.08375 12.0337 4.08375H12.0412C12.09 4.08375 12.1387 4.08375 12.195 4.0875C16.3087 4.1775 19.185 7.53 19.185 12.2362C19.185 12.3225 19.185 12.405 19.1812 12.495C19.1437 14.5462 18.5925 16.6275 17.6437 18.39ZM20.9062 16.8525C20.775 17.7188 20.0137 18.3713 19.1287 18.3713H19.0837C19.4137 17.6663 19.6912 16.9125 19.9162 16.1138C20.1675 16.44 20.5125 16.6875 20.91 16.8225C20.9062 16.83 20.9062 16.8412 20.9062 16.8525Z" fill="#FF611D"/>
</g>
<defs>
<clipPath id="clip0_116_3845">
<rect width="24" height="24" fill="white"/>
</clipPath>
</defs>
</svg>
