<svg width="22" height="22" viewBox="0 0 22 22" fill="none" xmlns="http://www.w3.org/2000/svg">
<path d="M11.6063 17.2693L11.6063 17.2693C11.8276 17.271 12.0817 17.3622 12.2956 17.4514C12.5319 17.5499 12.8074 17.6856 13.1014 17.8395C13.5058 18.0512 13.9692 18.3103 14.4411 18.5741C14.6525 18.6923 14.8656 18.8114 15.076 18.9277C15.7668 19.3097 16.431 19.663 16.9625 19.8886C17.2301 20.0023 17.4415 20.0736 17.5932 20.1043C17.6006 20.1058 17.6077 20.1072 17.6145 20.1084C17.6155 20.102 17.6164 20.0954 17.6173 20.0884C17.6374 19.9357 17.6383 19.7135 17.6173 19.4243C17.5756 18.85 17.4559 18.1091 17.3176 17.3335C17.2755 17.0975 17.2316 16.8578 17.188 16.6201C17.0908 16.0894 16.9953 15.5682 16.9256 15.118C16.875 14.7907 16.8356 14.4867 16.8188 14.2317C16.8035 14.0011 16.7994 13.7312 16.8698 13.521L16.8698 13.521C16.9401 13.3109 17.106 13.0977 17.257 12.9225C17.424 12.7289 17.6386 12.5095 17.8763 12.2782C18.2032 11.9601 18.5935 11.6007 18.9909 11.2347C19.169 11.0707 19.3485 10.9054 19.5244 10.7419C20.1022 10.2047 20.6444 9.684 21.0238 9.24978C21.2148 9.03111 21.3481 8.85287 21.4241 8.71872C21.4273 8.71303 21.4304 8.70753 21.4333 8.70224C21.4276 8.69943 21.4217 8.69655 21.4155 8.6936C21.2757 8.62725 21.0638 8.5577 20.7813 8.48821C20.2205 8.35023 19.4766 8.23471 18.6941 8.12621C18.4559 8.09318 18.2138 8.06076 17.9735 8.02859C17.4373 7.9568 16.9109 7.88631 16.46 7.81329C16.1322 7.76021 15.8303 7.70364 15.582 7.64087C15.3575 7.58408 15.0993 7.50469 14.9211 7.37341L14.9211 7.3734C14.7428 7.242 14.5907 7.01898 14.4702 6.82146C14.3371 6.60318 14.1942 6.33184 14.047 6.03498C13.8446 5.62659 13.6224 5.14534 13.3961 4.65526C13.2948 4.43576 13.1926 4.21449 13.091 3.9972C12.7573 3.28322 12.4282 2.60825 12.1313 2.11429C11.9818 1.86556 11.853 1.68409 11.7485 1.57052C11.7433 1.56488 11.7383 1.55955 11.7335 1.5545C11.7286 1.55948 11.7235 1.56474 11.7182 1.57031C11.6119 1.6822 11.4801 1.86157 11.3266 2.10786C11.0218 2.59698 10.6818 3.26657 10.3365 3.97508C10.2314 4.19073 10.1257 4.41035 10.0208 4.62821C9.7866 5.11456 9.55664 5.59214 9.34765 5.9972C9.19572 6.29165 9.0484 6.56064 8.91176 6.77674C8.78812 6.97228 8.63246 7.19281 8.45205 7.32131C8.45204 7.32131 8.45204 7.32132 8.45203 7.32132L8.16197 6.91405C7.85268 7.13436 6.64921 7.2758 5.33971 7.4297C3.54543 7.64058 1.55208 7.87486 1.38712 8.36745L11.6063 17.2693ZM11.6063 17.2693C11.385 17.2675 11.1294 17.3545 10.9141 17.4402C10.6763 17.5349 10.3986 17.6662 10.1022 17.8154C9.69435 18.0205 9.22687 18.2721 8.75076 18.5283C8.53745 18.6431 8.32241 18.7588 8.11023 18.8717C7.41326 19.2425 6.74342 19.585 6.20837 19.8021C5.93895 19.9114 5.72647 19.9794 5.57428 20.0076C5.56683 20.009 5.55971 20.0102 5.55289 20.0114C5.55205 20.005 5.55122 19.9983 5.55042 19.9913C5.53284 19.8384 5.53557 19.6162 5.56125 19.3273C5.61223 18.7538 5.74385 18.0149 5.89469 17.2416C5.94061 17.0063 5.98838 16.7673 6.03578 16.5303C6.14158 16.0012 6.24548 15.4817 6.32244 15.0327C6.37839 14.7063 6.42269 14.4029 6.44366 14.1483C6.46262 13.918 6.47111 13.6481 6.40416 13.4368C6.33724 13.2256 6.17486 13.0098 6.02666 12.8322C5.86279 12.6359 5.65177 12.413 5.41789 12.178C5.09614 11.8546 4.7117 11.4889 4.32018 11.1166C4.14482 10.9498 3.96805 10.7816 3.79485 10.6153C3.22577 10.0689 2.69215 9.53956 2.31982 9.09929C2.13232 8.87758 2.00196 8.69722 1.92814 8.56187C1.925 8.55612 1.92204 8.55057 1.91923 8.54522L11.6063 17.2693ZM1.81558 8.60624C1.81556 8.60624 1.81597 8.60583 1.81688 8.60504L1.81558 8.60624ZM5.43433 20.0205C5.43433 20.0205 5.43497 20.0205 5.43618 20.0207L5.43433 20.0205ZM5.578 20.1256C5.57856 20.1267 5.57881 20.1273 5.57878 20.1273L5.578 20.1256ZM11.8234 1.47815C11.8234 1.47817 11.8229 1.47848 11.8218 1.47899L11.8234 1.47815ZM17.7329 20.1195C17.7329 20.1195 17.7323 20.1196 17.731 20.1197L17.7329 20.1195Z" stroke="#FFCC4D"/>
</svg>
